# xmcd CD database file
#
# Track frame offsets:
#	150
#	21832
#	42079
#	57162
#	76278
#	87643
#	102840
#	122934
#
# Disc length: 1873 seconds
#
# Revision: 0
# Processed by: cddbd v1.5.2PL0 Copyright (c) Steve Scherf et al.
# Submitted via: CDex 2.12
#
DISCID=61074f08
DTITLE=MANU DELAGO - PARASOL PEAK
DYEAR=2018
DGENRE=Jazz
TTITLE0=PARASOL WOODS
TTITLE1=ALPINE BROOK
TTITLE2=NORTH CLUSTER
TTITLE3=RIDGE VIEW
TTITLE4=LAKE SERENADE
TTITLE5=LISTENING GLACIER
TTITLE6=PARASOL PEAK
TTITLE7=BASE CAMP
EXTD=YEAR: 2018
EXTT0=
EXTT1=
EXTT2=
EXTT3=
EXTT4=
EXTT5=
EXTT6=
EXTT7=
PLAYORDER=
